<svg viewBox="0 0 512 512"
  xmlns="http://www.w3.org/2000/svg">
  <g transform="translate(60.000000,460.000000) scale(0.100000,-0.100000)" fill="#C36090" stroke="none">
    <path d="M2390 3309 c-87 -39 -144 -92 -185 -170 -39 -77 -89 -139 -112 -139
-7 0 -13 -4 -13 -9 0 -6 -40 -9 -92 -7 -104 3 -169 23 -383 117 -115 51 -124
53 -223 57 -74 3 -124 0 -175 -12 -84 -20 -298 -123 -355 -171 -33 -29 -115
-153 -187 -285 -10 -19 -25 -41 -32 -48 -7 -7 -32 -46 -55 -85 -23 -40 -62
-94 -87 -122 l-46 -50 43 40 c44 41 51 36 28 -19 -10 -24 -37 -49 -93 -86
-132 -89 -127 -93 10 -8 52 33 79 44 82 36 2 -7 5 -62 8 -123 3 -109 4 -112
71 -279 l68 -169 -16 -57 c-9 -31 -16 -67 -16 -79 0 -23 -45 -165 -72 -228 -8
-18 -45 -78 -84 -132 -51 -73 -80 -106 -111 -123 -56 -30 -67 -58 -54 -137 12
-72 46 -136 93 -176 27 -23 39 -26 75 -22 61 7 76 22 69 69 -9 52 8 87 93 191
39 48 90 116 113 150 69 103 100 136 174 193 75 56 103 86 143 152 45 75 114
90 246 52 38 -11 98 -20 132 -20 60 0 63 -1 70 -27 3 -16 7 -84 7 -153 1 -147
-16 -213 -95 -377 -27 -56 -49 -113 -49 -127 0 -31 24 -56 56 -56 21 0 24 -5
24 -37 1 -69 31 -89 157 -103 48 -6 104 -13 123 -16 38 -5 96 23 107 52 3 9
-6 39 -22 68 -39 72 -31 101 51 201 127 156 191 265 274 467 41 100 58 120
132 157 60 30 66 41 12 21 -48 -19 -37 -2 16 25 29 15 80 32 114 40 33 7 74
18 89 24 26 10 32 8 61 -21 19 -19 41 -57 51 -88 40 -121 93 -213 175 -303 44
-48 80 -91 80 -96 0 -5 -7 -11 -15 -15 -8 -3 -15 -15 -15 -26 0 -11 -6 -23
-14 -26 -8 -3 -12 -12 -9 -20 4 -11 16 -13 52 -8 37 5 49 2 63 -13 23 -25 88
-208 88 -249 0 -55 21 -137 46 -180 42 -73 106 -80 220 -24 66 32 92 53 118
92 l18 27 -76 80 c-64 68 -78 88 -92 140 -10 34 -21 58 -27 54 -6 -3 -7 -1 -3
6 4 6 -4 39 -17 74 -45 112 -44 120 5 170 24 24 57 51 74 60 30 15 49 42 45
60 -1 5 3 6 8 3 5 -4 52 37 103 89 77 78 104 114 146 195 29 55 52 108 52 119
0 10 6 24 14 30 8 7 16 39 19 79 3 37 11 103 18 147 15 96 17 183 5 210 -11
26 -14 65 -4 59 13 -8 9 51 -4 64 -10 10 -10 17 0 32 10 16 10 20 -2 20 -8 0
-16 13 -18 29 -4 28 -2 30 39 36 23 3 92 30 153 60 113 56 131 56 88 -1 l-22
-29 32 29 c33 30 43 66 19 66 -8 0 -60 -23 -116 -50 -115 -56 -187 -78 -202
-63 -6 6 -30 58 -53 116 -64 156 -166 297 -215 297 -6 0 -30 17 -54 38 -53 48
-176 124 -307 189 -49 25 -66 28 -160 29 -77 0 -115 5 -145 18 -44 19 -222 56
-270 56 -16 0 -50 -10 -75 -21z m190 -215 c50 -43 64 -79 50 -130 -7 -23 -10
-48 -8 -56 7 -20 39 49 47 101 l7 46 18 -55 c10 -30 24 -62 30 -70 8 -10 4
-10 -13 3 -39 27 -61 7 -61 -56 -1 -29 -7 -63 -14 -76 -20 -36 -1 -95 46 -145
64 -66 76 -89 102 -182 13 -49 28 -100 34 -114 14 -35 50 -65 95 -80 20 -6 35
-15 33 -19 -3 -4 8 -5 25 -3 16 2 29 10 29 17 0 7 11 16 25 19 14 4 25 11 25
16 0 16 58 11 138 -11 83 -23 102 -20 102 16 0 22 4 25 33 25 28 0 36 -5 50
-35 9 -20 17 -46 17 -60 0 -13 5 -36 11 -52 6 -15 12 -48 14 -73 2 -25 7 -70
13 -100 5 -30 8 -73 6 -95 -2 -22 -5 -52 -6 -67 0 -15 -7 -29 -15 -32 -7 -3
-13 -14 -13 -24 0 -11 -7 -25 -15 -32 -9 -7 -14 -19 -11 -26 3 -7 1 -14 -3
-16 -5 -2 -29 -36 -53 -76 -47 -74 -149 -192 -168 -192 -6 0 -12 6 -14 13 -3
6 -14 44 -25 82 -11 39 -37 97 -57 130 -20 33 -61 113 -91 178 l-55 118 1 127
c1 85 6 129 14 134 8 5 7 9 -5 13 -15 6 -42 12 -60 14 -20 2 -51 53 -69 116
-11 38 -37 97 -56 129 -20 32 -44 79 -53 104 -12 32 -20 41 -26 31 -6 -10 -10
-8 -16 11 -5 18 -6 13 -3 -16 3 -26 -5 -74 -24 -140 -15 -54 -36 -138 -46
-186 -10 -50 -26 -96 -37 -107 -10 -11 -18 -25 -18 -31 0 -31 -133 28 -182 81
-15 16 -32 29 -38 29 -6 0 -28 9 -48 20 -20 11 -62 31 -92 44 -76 35 -122 83
-122 130 0 31 10 47 60 101 34 35 95 115 136 177 182 274 218 319 271 343 43
19 50 18 85 -11z m507 -226 c-3 -8 -6 -5 -6 6 -1 11 2 17 5 13 3 -3 4 -12 1
-19z m-310 -4 c-3 -3 -12 -4 -19 -1 -8 3 -5 6 6 6 11 1 17 -2 13 -5z m230 -20
c-3 -3 -12 -4 -19 -1 -8 3 -5 6 6 6 11 1 17 -2 13 -5z m-20 -80 c-3 -3 -12 -4
-19 -1 -8 3 -5 6 6 6 11 1 17 -2 13 -5z m571 -323 c-57 -36 -126 -61 -176 -62
-37 -1 -37 -1 -7 -9 54 -14 -6 -11 -84 4 -81 16 -89 20 -93 56 -3 21 2 26 25
28 16 2 49 -4 74 -12 62 -21 134 -20 213 3 91 27 101 25 48 -8z m36 -6 c-8
-19 -79 -52 -129 -60 -39 -6 -39 -5 11 12 27 10 66 29 85 41 41 26 40 26 33 7z
m-87 -431 c-3 -3 -12 -4 -19 -1 -8 3 -5 6 6 6 11 1 17 -2 13 -5z m-873 -69
c-22 -34 -84 -69 -174 -100 -72 -24 -153 -66 -165 -85 -3 -5 14 2 39 16 24 13
82 37 128 53 45 15 103 38 128 51 l45 23 -26 -34 c-34 -44 -90 -76 -159 -89
-119 -24 -208 -66 -197 -94 3 -6 -6 -19 -19 -29 -13 -10 -24 -14 -24 -9 0 13
59 92 68 92 4 0 8 10 9 23 3 34 52 71 144 108 46 19 113 48 149 66 36 17 66
32 68 32 1 1 -5 -10 -14 -24z m-1387 -271 c-3 -3 -12 -4 -19 -1 -8 3 -5 6 6 6
11 1 17 -2 13 -5z m71 -1 c-10 -2 -28 -2 -40 0 -13 2 -5 4 17 4 22 1 32 -1 23
-4z m-943 -713 c22 -8 26 -15 21 -35 -8 -31 2 -36 79 -37 36 -1 65 -5 65 -9 0
-14 -29 -30 -64 -36 -33 -5 -40 -2 -86 44 -28 28 -50 58 -50 67 0 19 1 19 35
6z m3005 -89 c0 -5 -13 -14 -30 -20 -32 -11 -33 -10 -24 13 6 17 54 23 54 7z
m30 -41 c0 -37 -183 -150 -244 -150 -65 0 -9 66 81 95 32 11 74 30 93 42 36
24 70 30 70 13z m-145 -27 c-22 -16 -45 -17 -45 -3 0 13 41 30 54 22 5 -3 1
-11 -9 -19z m-1430 -23 c8 -13 -48 -40 -82 -40 -15 0 -35 5 -43 10 -25 17 7
29 46 18 27 -7 38 -6 50 6 18 19 21 19 29 6z m-158 -16 c2 -7 -8 -9 -27 -6
-16 2 -27 8 -24 14 8 12 46 6 51 -8z m1499 -10 c-11 -7 -22 -11 -25 -8 -3 3 3
12 13 20 11 7 22 11 25 8 3 -3 -3 -12 -13 -20z"/>
    <path d="M2612 2745 c0 -11 3 -29 8 -40 11 -25 11 1 0 35 -6 20 -8 21 -8 5z"/>
    <path d="M2509 2519 c-43 -119 -42 -117 -30 -99 17 24 72 171 68 183 -1 5 -19 -32 -38 -84z"/>
    <path d="M2408 2477 c-15 -39 -26 -73 -24 -75 2 -2 16 29 32 68 15 38 25 72 23 74 -2 2 -16 -28 -31 -67z"/>
    <path d="M2395 2303 c-22 -19 -31 -31 -20 -25 19 9 74 63 64 62 -2 -1 -22 -17 -44 -37z"/>
    <path d="M3825 2550 c-22 -10 -36 -19 -32 -19 12 -1 77 27 77 33 0 7 3 8 -45 -14z"/>
    <path d="M240 2204 c-80 -47 -101 -54 -79 -27 8 10 -15 -3 -51 -28 -67 -46 -110 -98 -110 -132 0 -16 6 -11 28 19 35 48 70 75 195 148 53 31 97 59 97 61 0 7 2 8 -80 -41z"/>
  </g>
</svg>
